<svg xmlns="http://www.w3.org/2000/svg" width="1000" height="180" viewBox="0 0 1000 180" role="img" aria-labelledby="t">
  <title id="t">Supinfo.TV V2 — Plateforme e-commerce de films et séries (projet pédagogique, en ligne)</title>
  <defs>
    <linearGradient id="iris" x1="0" y1="0" x2="1" y2="0">
      <stop offset="0" stop-color="#8b5cf6"/><stop offset=".45" stop-color="#22d3ee"/><stop offset="1" stop-color="#34d399"/>
    </linearGradient>
    <linearGradient id="surface" x1="0" y1="0" x2="1" y2="1">
      <stop offset="0" stop-color="#fff" stop-opacity=".045"/><stop offset="1" stop-color="#fff" stop-opacity=".012"/>
    </linearGradient>
    <radialGradient id="spot" cx=".82" cy="0" r=".6">
      <stop offset="0" stop-color="#22d3ee" stop-opacity=".13"/><stop offset="1" stop-color="#22d3ee" stop-opacity="0"/>
    </radialGradient>
    <radialGradient id="gridFade" cx=".8" cy=".5" r=".45">
      <stop offset="0" stop-color="#fff"/><stop offset="1" stop-color="#fff" stop-opacity="0"/>
    </radialGradient>
    <pattern id="grid" width="20" height="20" patternUnits="userSpaceOnUse"><circle cx="1" cy="1" r="1" fill="#fff" fill-opacity=".1"/></pattern></defs>
  
  <clipPath id="clip-p"><rect width="1000" height="180" rx="18"/></clipPath>
  <mask id="mask-p"><rect width="1000" height="180" fill="url(#gridFade)"/></mask>
  <g clip-path="url(#clip-p)">
    <rect width="1000" height="180" fill="#0a0c14"/>
    <rect width="1000" height="180" fill="url(#surface)"/>
    <rect width="1000" height="180" fill="url(#grid)" mask="url(#mask-p)"/>
    <rect width="1000" height="180" fill="url(#spot)"/>
  </g>
  <rect x=".5" y=".5" width="999" height="179" rx="17.5" fill="none" stroke="#fff" stroke-opacity=".08"/>
  <text x="48" y="58" font-family="ui-monospace, SFMono-Regular, Menlo, Consolas, 'Liberation Mono', monospace" font-size="13" fill="#5b6379" letter-spacing="2">03</text>
  <text x="82" y="58" font-family="Inter, 'Segoe UI', system-ui, -apple-system, Roboto, Helvetica, Arial, sans-serif" font-size="13" font-weight="500" fill="#8a92aa" letter-spacing="2.6">PROJET PÉDAGOGIQUE</text>
  <text x="46" y="110" font-family="Inter, 'Segoe UI', system-ui, -apple-system, Roboto, Helvetica, Arial, sans-serif" font-size="42" font-weight="700" fill="#f4f6fb" letter-spacing="-1">Supinfo.TV V2</text>
  <text x="48" y="144" font-family="Inter, 'Segoe UI', system-ui, -apple-system, Roboto, Helvetica, Arial, sans-serif" font-size="19" fill="#c3c9da">Plateforme e-commerce de films et séries</text>
  <g transform="translate(509.2 36)">
    <rect width="86.8" height="26" rx="13" fill="#34d399" fill-opacity=".1" stroke="#34d399" stroke-opacity=".35"/>
    <circle cx="14" cy="13" r="3" fill="#34d399"/>
    <text x="24" y="17.5" font-family="Inter, 'Segoe UI', system-ui, -apple-system, Roboto, Helvetica, Arial, sans-serif" font-size="12.5" font-weight="500" fill="#34d399">En ligne</text>
  </g>
  <rect x="648" y="44" width="52" height="88" rx="7" fill="#8b5cf6" fill-opacity="0.1" stroke="#fff" stroke-opacity="0.08"/><rect x="656" y="112" width="28" height="4" rx="2" fill="#fff" fill-opacity="0.25"/><rect x="710" y="44" width="52" height="88" rx="7" fill="#38bdf8" fill-opacity="0.1" stroke="#fff" stroke-opacity="0.08"/><rect x="718" y="112" width="28" height="4" rx="2" fill="#fff" fill-opacity="0.25"/><rect x="772" y="30" width="60" height="104" rx="7" fill="#22d3ee" fill-opacity="0.28" stroke="#22d3ee" stroke-opacity="0.7"/><rect x="780" y="114" width="36" height="4" rx="2" fill="#fff" fill-opacity="0.7"/><path d="M796 70 l16 10 -16 10 z" fill="#fff" fill-opacity=".85"/><rect x="834" y="44" width="52" height="88" rx="7" fill="#34d399" fill-opacity="0.1" stroke="#fff" stroke-opacity="0.08"/><rect x="842" y="112" width="28" height="4" rx="2" fill="#fff" fill-opacity="0.25"/><rect x="896" y="44" width="52" height="88" rx="7" fill="#8b5cf6" fill-opacity="0.1" stroke="#fff" stroke-opacity="0.08"/><rect x="904" y="112" width="28" height="4" rx="2" fill="#fff" fill-opacity="0.25"/><circle cx="920" cy="138" r="13" fill="#34d399" fill-opacity=".18" stroke="#34d399" stroke-opacity=".6"/>
      <text x="920" y="142.5" text-anchor="middle" font-family="Inter, 'Segoe UI', system-ui, -apple-system, Roboto, Helvetica, Arial, sans-serif" font-size="12" font-weight="700" fill="#34d399">3</text>
</svg>
